<svg viewBox="0 0 256 250.4">
<path d="M56.9,47v157.1H214V47H56.9z M131,125.6l-67.7,67.7V57.8L131,125.6z M67.7,53.3h135.5l-67.7,67.7L67.7,53.3z M135.5,130
	l67.7,67.7H67.7L135.5,130z M139.9,125.6l67.7-67.7v135.5L139.9,125.6z"/>
<path d="M44.4,6.5C44.8,5.2,45,4.1,45,3.1c0-1.3-0.7-1.8-2-2.1l-1.5-0.4V0h9.3v0.7L50,1c-1.9,0.6-2.6,1.7-3.9,5.8l-9,28.4h-3.7
	l-7.3-22.3H26l-7.5,22.3h-3.8L4.4,5.5C3.2,2.1,2.8,1.3,1.2,1L0,0.7V0h15.3v0.7L14,1c-1.3,0.3-1.9,0.9-1.9,1.8c0,1,0.4,2.2,0.9,3.8
	l6.7,19.8h0.2l5.3-16l-1.8-5.4c-0.9-2.6-1.4-3.5-2.9-4l-1.1-0.3V0h15.2v0.7L32.9,1c-1.3,0.3-1.8,1-1.8,2c0,0.9,0.4,2,0.8,3.6
	l6.3,19.7h0.2L44.4,6.5z"/>
<path d="M232.7,248.7l-0.7-9.9h0.8c1.3,2.7,2.4,4.8,3.7,6.7c1.8,2.5,3.6,3.7,6.9,3.7c4,0,6.2-2.5,6.2-6.2c0-3.8-1.9-5.5-7.8-8.1
	c-6.2-2.5-9.4-5.4-9.4-11c0-6.1,4.7-10.8,12.3-10.8c3.8,0,6.9,0.7,8.6,1.5l0.6,9h-0.8c-1.1-2.5-2.1-4.5-3.4-6.2
	c-1.7-2.2-2.9-3-5.5-3c-3.7,0-6,2-6,5.5c0,3.4,1.8,5.1,7,7.4c7.8,3.3,10.8,6,10.8,11.5c0,5.9-4.4,11.6-13,11.6
	C238.4,250.4,234.9,249.8,232.7,248.7z"/>
</svg>

