<svg viewBox="0 0 548 74.6" >
<path d="M81.7,17.7c0.7-2.5,1.1-4.3,1.1-6c0-2.3-1.2-3.1-3.9-3.9l-2.9-0.7V6h17.5v1.1l-1.7,0.6c-3.9,1.3-5,3-7.4,11L67.7,73.3h-5
	L47.9,28.8h-0.2L32.8,73.3h-5l-19.4-57c-2.2-6.6-3-7.9-6.1-8.6L0,7.1V6h25.2v1.1l-2.5,0.6C20,8.3,19,9.2,19,11
	c0,1.7,0.7,3.7,1.7,6.6l13.9,41.8h0.3l11.6-34.9l-2.8-8.5c-1.9-5.9-2.8-7.4-5.9-8.3l-2.2-0.6V6h25.1v1.1l-2.9,0.6
	c-2.5,0.6-3.5,1.7-3.5,3.5c0,1.6,0.6,3.5,1.5,6.4l13.6,41.6h0.3L81.7,17.7z"/>
<path d="M88.8,62.6c0-8.9,7.5-11.4,14.9-13.3l12.8-3.2V35.5c0-7.2-0.6-11.4-8.4-11.4c-4.4,0-5.3,1.3-5.9,4.5c-0.5,5.1-2,6.7-5.5,6.7
	c-3.2,0-5-1.7-5-4.6c0-6.1,9.4-8.6,18.2-8.6c11.7,0,16.8,4.4,16.8,12.8v30.1c0,3,0.7,4.3,1.9,5c1.4,1,3.2,1.2,5,1.3v0.8
	c-1.5,1-4.7,2.3-8.4,2.3c-5.1,0-7.7-2-8.3-6.1h-0.3c-2.7,3.3-7.5,6.2-13.7,6.2C94.2,74.6,88.8,70.1,88.8,62.6z M116.5,66.1V48.9
	l-5.6,1c-7.8,1.4-11.8,3.8-11.8,11c0,5.8,2.9,9.2,8.3,9.2C111.8,70.1,114.9,68.4,116.5,66.1z"/>
<path d="M143.3,63.7V27.2h-5.6v-0.9c6.6-2.5,11.5-7.6,14.2-14.2h1.6v11.7h13l-0.4,3.4h-12.6v36.1c0,4.8,2,6.4,6.5,6.4
	c2.9,0,5.3-0.8,7.2-1.4v1.1c-2.2,2-6.7,4.9-12.5,4.9C147.5,74.3,143.3,71,143.3,63.7z"/>
<path d="M177.4,63.7V27.2h-5.6v-0.9c6.6-2.5,11.5-7.6,14.2-14.2h1.6v11.7h13l-0.4,3.4h-12.6v36.1c0,4.8,2,6.4,6.5,6.4
	c2.9,0,5.3-0.8,7.2-1.4v1.1c-2.2,2-6.7,4.9-12.5,4.9C181.7,74.3,177.4,71,177.4,63.7z"/>
<path d="M208.4,72.1l-0.3-14.2h1.1c1.6,3.2,2.7,5.7,4.1,8c2.5,4.7,5.4,6.5,11.1,6.5c5.8,0,9.4-3.6,9.4-9c0-5.2-3.1-7.7-11.5-11
	c-8.8-3.5-13.7-7.6-13.7-15.5c0-8.6,7-14.7,17.7-14.7c5,0,9.4,1,12.7,2.2l0.3,12.2h-1.1c-1.7-3.2-3-5.7-4.3-7.7
	c-2.1-3.2-4.3-4.8-8.7-4.8c-6,0-9.4,3.6-9.4,8.3c0,5,3.6,7.4,11.7,10.6c8.8,3.6,14.6,7.3,14.6,15.5c0,8.7-6.6,15.7-18.5,15.7
	C217.2,74.3,212.3,73.3,208.4,72.1z"/>
<path d="M273.5,71l-1.3-17.1h1.3c2,4.5,3.6,7.9,5.9,11.4c3,4.7,6.6,6.9,13.3,6.9c8,0,12.6-5,12.6-12.5c0-7.3-3.7-10.6-15-16.1
	c-9.8-4.5-16.7-9.7-16.7-19.8c0-10.4,7.8-18.6,21-18.6c6.6,0,12,1.2,15.1,2.6l1.1,15.7h-1.2c-1.9-4.3-3.5-7.5-5.4-10.3
	c-2.8-4.4-4.9-5.9-10.5-5.9c-7.5,0-11.9,3.9-11.9,11.1c0,7.2,3.6,10.4,13,14.9c13.9,6.7,19.5,11.1,19.5,21.4
	c0,9.7-7.3,19.8-22.3,19.8C284.2,74.3,277.8,73.1,273.5,71z"/>
<path d="M326.7,63.7V27.2h-5.6v-0.9c6.6-2.5,11.5-7.6,14.2-14.2h1.6v11.7h13l-0.4,3.4h-12.6v36.1c0,4.8,2,6.4,6.5,6.4
	c2.9,0,5.3-0.8,7.2-1.4v1.1c-2.2,2-6.7,4.9-12.5,4.9C331,74.3,326.7,71,326.7,63.7z"/>
<path d="M392.1,32.7c0-3.9-0.2-4.2-3.5-5.9l-2.5-1.5v-0.8l15.6-2.1l0.5,0.3v41.5c0,4.4,0.6,5,3.7,6.1l2.6,1v0.9l-15.7,2.1l-0.6-0.2
	v-6.3H392c-4.8,3.2-10.8,6.5-18,6.5c-7.9,0-12.6-4.4-12.6-12.6v-29c0-3.9-0.4-4.1-3.5-5.8l-2.5-1.5v-0.8l15.5-2.1l0.6,0.3v37
	c0,6.1,3.1,9,8.4,9c4.7,0,9.1-1.5,12.3-2.8V32.7z"/>
<path d="M413.2,50.6c0-19.3,13.4-28.5,26.8-28.5c4.5,0,6.8,0.8,8.5,1.4V9.6c0-3.8-0.5-4.3-2.9-5.4l-3.9-1.8V1.6L458.5,0l0.6,0.2
	c0,0-0.4,4.6-0.4,11.9V65c0,3.8,0.4,4.4,3.8,5.5l2.6,0.9v0.9l-15.8,2l-0.8-0.4l0.2-5.4h-0.3c-4.4,3.5-9.2,5.8-15.3,5.8
	C422.6,74.3,413.2,68.5,413.2,50.6z M448.5,66.4V28.6c-1.7-2.5-5-4.3-9.2-4.3c-9.5,0-15.6,7.3-15.6,23.8c0,14.5,5.4,21.3,14.7,21.3
	C443,69.3,446.6,67.8,448.5,66.4z"/>
<path d="M470.5,72.3l2.7-0.7c3.3-0.8,3.6-1.2,3.6-5V32.3c0-3.6-0.5-3.9-3.8-5.5l-2.5-1.5v-0.8l16.3-2.1l0.5,0.2
	c-0.1,1.7-0.4,5.1-0.4,11.3v32.8c0,3.8,0.5,4.2,3.9,5l2.5,0.7v1h-22.8V72.3z M481.4,3.9c3.3,0,5.9,2.4,5.9,5.7
	c0,3.4-2.6,5.7-5.9,5.7c-3.4,0-5.9-2.3-5.9-5.7C475.5,6.3,478,3.9,481.4,3.9z"/>
<path d="M499.3,48.5c0-17.2,11.9-26.3,24.4-26.3c13.5,0,24.4,8.4,24.4,25.8c0,17.1-11.9,26.3-24.4,26.3
	C510,74.3,499.3,65.7,499.3,48.5z M537.1,49.2c0-18-4.7-25.1-13.7-25.1c-8.6,0-13.3,6.8-13.3,23.2c0,17.9,4.6,25,13.9,25
	C533,72.3,537.1,65.2,537.1,49.2z"/>
</svg>
